<svg id="visual" viewBox="0 0 900 200" width="900" height="200" xmlns="http://www.w3.org/2000/svg" xmlns:xlink="http://www.w3.org/1999/xlink" version="1.1"><path d="M0 76L25 86.2C50 96.3 100 116.7 150 117.8C200 119 250 101 300 101.2C350 101.3 400 119.7 450 128.5C500 137.3 550 136.7 600 140.5C650 144.3 700 152.7 750 147.5C800 142.3 850 123.7 875 114.3L900 105L900 201L875 201C850 201 800 201 750 201C700 201 650 201 600 201C550 201 500 201 450 201C400 201 350 201 300 201C250 201 200 201 150 201C100 201 50 201 25 201L0 201Z" fill="#FFCC66" stroke-linecap="round" stroke-linejoin="miter"></path></svg>